Coordinates
version=1
nRows=43
nColumns=12
inDegrees=yes

Units are S.I. units (second, meters, Newtons, ...)
Angles are in degrees

endheader
time	SC_y	SC_z	SC_x	AC_y	AC_z	AC_x	GH_y	GH_z	GH_yy	EL_x	PS_y
       0.0              -24.89          28.29          55.11          38.26          9.585          6.392          -64.5          77.77         -94.08          49.28           19.2
   0.04986              -24.89          28.28          55.11          38.26          9.584          6.393         -64.51          77.76         -94.07          49.28           19.2
   0.09972              -24.89          28.28          55.12          38.27          9.582          6.394         -64.51          77.75         -94.06          49.29          19.21
    0.1496              -24.89          28.27          55.12          38.27          9.581          6.395         -64.52          77.74         -94.05          49.29          19.21
    0.1994              -24.89          28.27          55.12          38.27          9.579          6.396         -64.52          77.73         -94.04           49.3          19.21
    0.2493              -24.89          28.26          55.13          38.28          9.577          6.398         -64.53          77.72         -94.03           49.3          19.22
    0.2992              -24.89          28.26          55.13          38.28          9.576          6.399         -64.53          77.71         -94.02          49.31          19.22
     0.349              -24.89          28.25          55.13          38.29          9.574            6.4         -64.54           77.7          -94.0          49.31          19.22
    0.3989              -24.89          28.24          55.14          38.29          9.571          6.402         -64.55          77.68         -93.99          49.32          19.23
    0.4487              -24.89          28.24          55.14           38.3          9.569          6.404         -64.55          77.67         -93.97          49.32          19.23
    0.4986              -24.89          28.23          55.15           38.3          9.567          6.405         -64.56          77.65         -93.96          49.33          19.24
    0.5485              -24.88          28.22          55.15          38.31          9.564          6.407         -64.57          77.64         -93.94          49.34          19.24
    0.5983              -24.88          28.21          55.16          38.31          9.561          6.409         -64.58          77.62         -93.92          49.35          19.25
    0.6482              -24.88           28.2          55.17          38.32          9.558          6.411         -64.59           77.6          -93.9          49.36          19.26
     0.698              -24.88          28.19          55.17          38.33          9.555          6.414          -64.6          77.58         -93.88          49.37          19.26
    0.7479              -24.88          28.18          55.18          38.34          9.551          6.417         -64.61          77.55         -93.86          49.38          19.27
    0.7978              -24.88          28.17          55.19          38.35          9.547          6.419         -64.63          77.53         -93.83          49.39          19.28
    0.8476              -24.88          28.16           55.2          38.36          9.543          6.422         -64.64           77.5         -93.81           49.4          19.29
    0.8975              -24.87          28.14          55.21          38.37          9.538          6.426         -64.66          77.47         -93.78          49.41           19.3
    0.9473              -24.87          28.12          55.22          38.38          9.533          6.429         -64.67          77.44         -93.74          49.43          19.31
    0.9972              -24.87          28.11          55.23          38.39          9.527          6.434         -64.69           77.4         -93.71          49.44          19.32
     1.047              -24.87          28.09          55.25          38.41          9.521          6.438         -64.71          77.37         -93.67          49.46          19.34
     1.097              -24.86          28.07          55.26          38.42          9.514          6.443         -64.74          77.32         -93.62          49.48          19.35
     1.147              -24.86          28.04          55.28          38.44          9.506          6.448         -64.76          77.27         -93.58           49.5          19.37
     1.197              -24.86          28.02          55.29          38.46          9.498          6.454         -64.79          77.22         -93.52          49.53          19.38
     1.246              -24.85          27.99          55.31          38.48          9.489          6.461         -64.82          77.16         -93.46          49.56           19.4
     1.296              -24.85          27.96          55.34           38.5          9.478          6.469         -64.85           77.1         -93.39          49.59          19.43
     1.346              -24.84          27.92          55.36          38.53          9.466          6.477         -64.89          77.02         -93.32          49.62          19.45
     1.396              -24.84          27.88          55.39          38.56          9.453          6.487         -64.94          76.94         -93.23          49.66          19.48
     1.446              -24.83          27.83          55.42           38.6          9.437          6.498         -64.99          76.84         -93.13           49.7          19.51
     1.496              -24.83          27.78          55.46          38.63           9.42           6.51         -65.05          76.73         -93.02          49.75          19.55
     1.546              -24.82          27.72           55.5          38.68            9.4          6.525         -65.11           76.6         -92.89          49.81          19.59
     1.596              -24.81          27.64          55.55          38.73          9.377          6.541         -65.19          76.46         -92.75          49.88          19.64
     1.645               -24.8          27.56          55.61          38.79           9.35          6.561         -65.28          76.29         -92.58          49.95           19.7
     1.695              -24.78          27.46          55.67          38.86          9.318          6.583         -65.38          76.09         -92.38          50.04          19.76
     1.745              -24.77          27.35          55.75          38.95          9.281           6.61          -65.5          75.86         -92.14          50.15          19.84
     1.795              -24.75          27.21          55.85          39.05          9.237          6.641         -65.65          75.58         -91.86          50.28          19.93
     1.845              -24.73          27.05          55.96          39.17          9.184          6.679         -65.82          75.25         -91.52          50.43          20.04
     1.895               -24.7          26.86          56.09          39.31           9.12          6.725         -66.03          74.85         -91.11          50.61          20.18
     1.945              -24.67          26.62          56.26          39.49          9.042          6.781         -66.29          74.36         -90.62          50.83          20.34
     1.994              -24.63          26.32          56.46          39.71          8.946           6.85         -66.61          73.76          -90.0          51.11          20.54
     2.044              -24.59          25.95          56.71          39.98          8.826          6.935          -67.0           73.0         -89.24          51.45           20.8
     2.094              -24.52          25.48          57.03          40.32          8.674          7.044          -67.5          72.06         -88.27          51.89          21.12
